<svg width="179" height="193" viewBox="0 0 179 193" fill="none" xmlns="http://www.w3.org/2000/svg">
<path fill-rule="evenodd" clip-rule="evenodd" d="M178.81 0.234467L173.461 89.1095V152.334L92.116 192.234L9.33971 152.34V89.1367L0.0996094 0.251718L77.7287 40.9558H106.002L178.81 0.234467ZM105.747 43.4676H93.4172L102.384 86.7169L125.422 66.6907L105.747 43.4676ZM129.121 66.3821L148.996 76.203L173.475 9.54592L129.121 66.3821ZM175.651 10.9068L151.261 77.3221L171.065 87.1074L175.651 10.9068ZM169.868 89.3176L149.838 79.4207L124.032 99.2416L151.663 113.503L169.868 89.3176ZM153.927 114.671L170.949 92.058V123.457L153.927 114.671ZM170.949 126.283L152.299 116.657L134.354 135.892L170.949 149.734V126.283ZM169.049 151.701L133.414 138.223V169.18L169.049 151.701ZM130.902 167.146V136.775L116.387 114.299L107.764 133.437L130.902 167.146ZM107.087 128.825L103.397 94.1858L114.764 111.786L107.087 128.825ZM117.615 111.571L132.339 134.37L149.98 115.46L122.3 101.174L117.615 111.571ZM120.064 100.02L115.992 109.058L105.201 92.349L120.064 100.02ZM121.566 97.9686L147.329 78.1808L127.375 68.3212L103.811 88.8047L121.566 97.9686ZM100.047 87.8157H83.7017L91.8742 48.398L100.047 87.8157ZM90.3312 43.4676L81.3643 86.7169L58.3264 66.6907L78.0014 43.4676H90.3312ZM75.4478 42.596L6.775 6.58806L56.5628 64.8866L75.4478 42.596ZM56.3679 68.3163L35.9676 78.1886L61.9134 97.9729L79.9292 88.7976L56.3679 68.3163ZM78.5452 92.3213L63.4237 100.023L67.6018 109.136L78.5452 92.3213ZM65.9806 111.627L61.1835 101.163L33.1149 115.459L51.1667 134.389L65.9806 111.627ZM49.1287 135.892L11.8515 149.745V126.288L30.7787 116.648L49.1287 135.892ZM31.3922 113.517L59.4298 99.2378L33.4334 79.415L12.5468 89.5226L31.3922 113.517ZM11.6597 87.1614L31.9586 77.3382L3.70758 10.666L11.6597 87.1614ZM5.92464 9.46013L34.2224 76.2427L54.5549 66.4033L5.92464 9.46013ZM11.8515 92.7039L29.1108 114.679L11.8515 123.469V92.7039ZM13.7986 151.701L50.0975 169.195V138.211L13.7986 151.701ZM54.7315 171.429L87.7907 187.362L71.165 166.15L54.7315 171.429ZM73.7145 165.331L92.0966 188.784L109.943 165.336L91.8731 159.498L73.7145 165.331ZM93.7499 157.464L106.412 135.904L129.036 168.866L93.7499 157.464ZM89.9971 157.462L54.4937 168.867L77.3322 135.896L89.9971 157.462ZM81.7953 138.536L91.8742 155.698L101.806 138.786L92.1239 146.522L81.7953 138.536ZM76.655 128.884L68.8404 111.838L80.3553 94.145L76.655 128.884ZM75.9796 133.438L67.2192 114.329L52.6093 136.777V167.176L75.9796 133.438ZM81.0968 134.821H102.745L92.0984 143.327L81.0968 134.821ZM78.8162 132.309H104.932L100.46 90.3275H83.2879L78.8162 132.309ZM128.817 171.435L96.3289 187.37L112.477 166.155L128.817 171.435ZM172.598 6.58645L108.273 42.5634L127.142 64.8349L172.598 6.58645Z" fill="black"/>
</svg>
