<svg width="513" height="422" viewBox="0 0 513 422" fill="none" xmlns="http://www.w3.org/2000/svg">
<path fill-rule="evenodd" clip-rule="evenodd" d="M404.821 0.234467L395.88 148.793V254.475L259.909 321.17L121.545 254.486V148.838L106.1 0.263304L235.86 68.3018H283.119L404.821 0.234467ZM282.693 72.5004H262.084L277.072 144.793L315.581 111.319L282.693 72.5004ZM321.763 110.803L354.987 127.219L395.904 15.7989L321.763 110.803ZM399.541 18.0737L358.772 129.09L391.875 145.446L399.541 18.0737ZM389.874 149.141L356.394 132.597L313.258 165.729L359.444 189.567L389.874 149.141ZM363.229 191.52L391.681 153.721V206.205L363.229 191.52ZM391.681 210.93L360.506 194.84L330.511 226.992L391.681 250.129V210.93ZM388.506 253.416L328.94 230.887V282.634L388.506 253.416ZM324.741 279.233V228.468L300.478 190.897L286.065 222.887L324.741 279.233ZM284.934 215.178L278.766 157.278L297.765 186.697L284.934 215.178ZM302.532 186.338L327.143 224.447L356.63 192.839L310.362 168.959L302.532 186.338ZM306.626 167.031L299.819 182.138L281.781 154.208L306.626 167.031ZM309.136 163.601L352.199 130.525L318.845 114.044L279.457 148.283L309.136 163.601ZM273.165 146.63H245.844L259.505 80.7418L273.165 146.63ZM256.925 72.5004L241.937 144.793L203.428 111.319L236.316 72.5004H256.925ZM232.047 71.0435L117.258 10.8548L200.48 108.303L232.047 71.0435ZM200.154 114.036L166.054 130.538L209.424 163.608L239.538 148.271L200.154 114.036ZM237.225 154.161L211.948 167.034L218.932 182.268L237.225 154.161ZM216.222 186.432L208.204 168.941L161.286 192.836L191.46 224.48L216.222 186.432ZM188.054 226.991L125.743 250.147V210.938L157.381 194.825L188.054 226.991ZM158.406 189.591L205.272 165.723L161.818 132.588L126.906 149.483L158.406 189.591ZM125.423 145.536L159.353 129.117L112.13 17.6711L125.423 145.536ZM115.836 15.6555L163.137 127.285L197.124 110.838L115.836 15.6555ZM125.743 154.801L154.593 191.533L125.743 206.226V154.801ZM128.998 253.417L189.673 282.659V230.868L128.998 253.417ZM197.419 286.393L252.679 313.025L224.888 277.569L197.419 286.393ZM229.15 276.2L259.876 315.402L289.707 276.209L259.503 266.449L229.15 276.2ZM262.64 263.051L283.804 227.012L321.623 282.109L262.64 263.051ZM256.367 263.047L197.022 282.11L235.197 226.999L256.367 263.047ZM242.657 231.411L259.505 260.098L276.106 231.829L259.922 244.76L242.657 231.411ZM234.065 215.277L221.003 186.784L240.25 157.21L234.065 215.277ZM232.936 222.889L218.293 190.948L193.872 228.472V279.284L232.936 222.889ZM241.49 225.201H277.676L259.879 239.42L241.49 225.201ZM237.678 221.002H281.332L273.857 150.829H245.152L237.678 221.002ZM321.255 286.403L266.951 313.04L293.942 277.577L321.255 286.403ZM394.438 10.8521L286.916 70.989L318.456 108.217L394.438 10.8521Z" fill="black"/>
<path d="M12.3691 409.942H24.1367V421.71H0.519531V346.143H24.1367V357.87H12.3691V409.942Z" fill="black"/>
<path d="M95.0373 392.16C95.0373 395.087 94.4838 397.843 93.3767 400.426C92.2697 402.984 90.7567 405.223 88.8378 407.142C86.9189 409.036 84.6679 410.537 82.0848 411.644C79.5263 412.751 76.7832 413.305 73.8557 413.305C70.9281 413.305 68.1728 412.751 65.5897 411.644C63.0312 410.537 60.7924 409.036 58.8736 407.142C56.9793 405.223 55.4786 402.984 54.3715 400.426C53.2645 397.843 52.711 395.087 52.711 392.16V360.387H63.2649V392.16C63.2649 393.611 63.5355 394.977 64.0767 396.256C64.6425 397.535 65.4052 398.655 66.3646 399.614C67.3241 400.574 68.4434 401.336 69.7227 401.902C71.0265 402.443 72.4042 402.714 73.8557 402.714C75.3071 402.714 76.6725 402.443 77.9518 401.902C79.2556 401.336 80.3873 400.574 81.3467 399.614C82.3062 398.655 83.0565 397.535 83.5978 396.256C84.1636 394.977 84.4465 393.611 84.4465 392.16V360.387H95.0373V392.16Z" fill="black"/>
<path d="M114.817 370.978V392.16H125.407C126.859 392.16 128.224 391.889 129.504 391.348C130.783 390.782 131.902 390.02 132.862 389.06C133.821 388.101 134.571 386.981 135.113 385.702C135.678 384.398 135.961 383.021 135.961 381.569C135.961 380.118 135.678 378.752 135.113 377.473C134.571 376.169 133.821 375.038 132.862 374.078C131.902 373.119 130.783 372.368 129.504 371.827C128.224 371.261 126.859 370.978 125.407 370.978H114.817ZM114.817 413.305H104.226V360.387H125.407C127.351 360.387 129.221 360.646 131.017 361.162C132.812 361.654 134.485 362.368 136.035 363.303C137.61 364.213 139.037 365.32 140.316 366.624C141.62 367.903 142.727 369.33 143.637 370.905C144.572 372.479 145.285 374.164 145.777 375.96C146.294 377.756 146.552 379.626 146.552 381.569C146.552 383.39 146.318 385.161 145.851 386.883C145.408 388.605 144.756 390.241 143.895 391.791C143.059 393.341 142.026 394.768 140.796 396.072C139.565 397.375 138.188 398.507 136.663 399.466L142.53 413.305H131.275L126.662 402.64L114.817 402.714V413.305Z" fill="black"/>
<path d="M195.853 397.437C195.853 399.626 195.435 401.681 194.598 403.599C193.762 405.518 192.618 407.204 191.166 408.655C189.74 410.082 188.067 411.214 186.148 412.05C184.229 412.886 182.175 413.305 179.985 413.305H153.527V360.387H179.985C182.175 360.387 184.229 360.806 186.148 361.642C188.067 362.479 189.74 363.623 191.166 365.074C192.618 366.501 193.762 368.174 194.598 370.093C195.435 372.012 195.853 374.066 195.853 376.255C195.853 377.239 195.718 378.248 195.447 379.281C195.176 380.314 194.795 381.311 194.303 382.27C193.811 383.23 193.221 384.103 192.532 384.89C191.843 385.678 191.08 386.329 190.244 386.846C191.105 387.313 191.88 387.953 192.569 388.765C193.258 389.552 193.848 390.426 194.34 391.385C194.832 392.344 195.201 393.353 195.447 394.411C195.718 395.444 195.853 396.453 195.853 397.437ZM164.117 402.714H179.985C180.723 402.714 181.412 402.579 182.052 402.308C182.691 402.037 183.245 401.668 183.712 401.201C184.204 400.709 184.586 400.143 184.856 399.503C185.127 398.864 185.262 398.175 185.262 397.437C185.262 396.699 185.127 396.01 184.856 395.37C184.586 394.731 184.204 394.177 183.712 393.71C183.245 393.218 182.691 392.836 182.052 392.566C181.412 392.295 180.723 392.16 179.985 392.16H164.117V402.714ZM164.117 381.569H179.985C180.723 381.569 181.412 381.434 182.052 381.163C182.691 380.893 183.245 380.524 183.712 380.056C184.204 379.564 184.586 378.998 184.856 378.359C185.127 377.694 185.262 376.993 185.262 376.255C185.262 375.517 185.127 374.828 184.856 374.189C184.586 373.549 184.204 372.996 183.712 372.528C183.245 372.036 182.691 371.655 182.052 371.384C181.412 371.114 180.723 370.978 179.985 370.978H164.117V381.569Z" fill="black"/>
<path d="M235.006 392.16V381.569C235.006 380.118 234.723 378.752 234.157 377.473C233.616 376.169 232.865 375.038 231.906 374.078C230.947 373.119 229.815 372.368 228.511 371.827C227.232 371.261 225.866 370.978 224.415 370.978C222.963 370.978 221.586 371.261 220.282 371.827C219.003 372.368 217.883 373.119 216.924 374.078C215.964 375.038 215.202 376.169 214.636 377.473C214.095 378.752 213.824 380.118 213.824 381.569V392.16H235.006ZM245.597 413.305H235.006V402.714H213.824V413.305H203.27V381.569C203.27 378.642 203.824 375.899 204.931 373.34C206.038 370.757 207.539 368.506 209.433 366.587C211.352 364.668 213.59 363.155 216.149 362.048C218.732 360.941 221.487 360.387 224.415 360.387C227.343 360.387 230.086 360.941 232.644 362.048C235.227 363.155 237.478 364.668 239.397 366.587C241.316 368.506 242.829 370.757 243.936 373.34C245.043 375.899 245.597 378.642 245.597 381.569V413.305Z" fill="black"/>
<path d="M297.111 413.305H285.783L265.376 378.469V413.305H254.785V360.387H266.114L286.521 395.26V360.387H297.111V413.305Z" fill="black"/>
<path d="M370.398 407.88C367.938 409.996 365.183 411.619 362.132 412.751C359.082 413.883 355.921 414.449 352.649 414.449C350.139 414.449 347.716 414.116 345.379 413.452C343.067 412.813 340.889 411.902 338.847 410.722C336.83 409.516 334.985 408.077 333.312 406.404C331.639 404.731 330.2 402.886 328.995 400.869C327.814 398.827 326.891 396.65 326.227 394.337C325.587 392 325.268 389.577 325.268 387.067C325.268 384.558 325.587 382.135 326.227 379.798C326.891 377.461 327.814 375.284 328.995 373.266C330.2 371.224 331.639 369.367 333.312 367.694C334.985 366.021 336.83 364.594 338.847 363.413C340.889 362.208 343.067 361.285 345.379 360.646C347.716 359.982 350.139 359.649 352.649 359.649C355.921 359.649 359.082 360.215 362.132 361.347C365.183 362.454 367.938 364.078 370.398 366.218L364.789 375.443C363.239 373.771 361.407 372.491 359.291 371.606C357.175 370.695 354.961 370.24 352.649 370.24C350.312 370.24 348.122 370.683 346.08 371.569C344.038 372.454 342.255 373.66 340.729 375.185C339.204 376.686 337.999 378.469 337.113 380.536C336.227 382.578 335.785 384.755 335.785 387.067C335.785 389.38 336.227 391.557 337.113 393.599C337.999 395.616 339.204 397.388 340.729 398.913C342.255 400.438 344.038 401.644 346.08 402.529C348.122 403.415 350.312 403.858 352.649 403.858C354.961 403.858 357.175 403.415 359.291 402.529C361.407 401.619 363.239 400.328 364.789 398.655L370.398 407.88Z" fill="black"/>
<path d="M407.706 392.16V381.569C407.706 380.118 407.423 378.752 406.857 377.473C406.316 376.169 405.566 375.038 404.606 374.078C403.647 373.119 402.515 372.368 401.211 371.827C399.932 371.261 398.567 370.978 397.115 370.978C395.664 370.978 394.286 371.261 392.982 371.827C391.703 372.368 390.584 373.119 389.624 374.078C388.665 375.038 387.902 376.169 387.336 377.473C386.795 378.752 386.525 380.118 386.525 381.569V392.16H407.706ZM418.297 413.305H407.706V402.714H386.525V413.305H375.971V381.569C375.971 378.642 376.524 375.899 377.631 373.34C378.738 370.757 380.239 368.506 382.133 366.587C384.052 364.668 386.291 363.155 388.849 362.048C391.432 360.941 394.188 360.387 397.115 360.387C400.043 360.387 402.786 360.941 405.344 362.048C407.928 363.155 410.179 364.668 412.097 366.587C414.016 368.506 415.529 370.757 416.636 373.34C417.743 375.899 418.297 378.642 418.297 381.569V413.305Z" fill="black"/>
<path d="M448.077 413.305H437.523V370.978H421.618V360.387H463.944V370.978H448.077V413.305Z" fill="black"/>
<path d="M512.52 421.71H488.943V409.942H500.67V357.87H488.943V346.143H512.52V421.71Z" fill="black"/>
</svg>
