<svg width="513" height="85" viewBox="0 0 513 85" fill="none" xmlns="http://www.w3.org/2000/svg">
<path fill-rule="evenodd" clip-rule="evenodd" d="M79.1223 0.117249L76.7555 39.4433V67.2317L40.9391 84.7999L4.4951 67.2356V39.4611L0.40625 0.128556L34.7192 18.1202H46.9337L79.1223 0.117249ZM46.7668 19.7665H41.8437L45.5982 37.8752L55.1064 29.6099L46.7668 19.7665ZM57.5305 29.4077L65.6392 33.4143L75.6258 6.2201L57.5305 29.4077ZM77.0521 7.11207L67.1237 34.1478L75.1852 38.1311L77.0521 7.11207ZM74.4929 39.6254L66.191 35.5232L55.3935 43.8165L66.8768 49.7434L74.4929 39.6254ZM68.3608 50.5094L75.1092 41.5441V53.9924L68.3608 50.5094ZM75.1092 55.845L67.2932 51.8109L59.8731 59.7646L75.1092 65.5272V55.845ZM73.8639 66.8163L59.2573 61.2918V73.981L73.8639 66.8163ZM57.611 72.6478V60.3431L51.5859 51.0136L48.089 58.7754L57.611 72.6478ZM47.6452 55.7527L46.2623 42.7704L50.5223 49.3667L47.6452 55.7527ZM52.3913 49.2261L58.5527 58.7666L65.7735 51.0266L54.2579 45.083L52.3913 49.2261ZM52.7929 44.3269L51.3276 47.5791L47.4446 41.5665L52.7929 44.3269ZM53.7771 42.9822L64.5463 34.7106L56.3863 30.6786L46.5334 39.2436L53.7771 42.9822ZM44.0662 38.5953H37.5985L40.8324 22.9979L44.0662 38.5953ZM39.8211 19.7665L36.0666 37.8752L26.5584 29.6099L34.8979 19.7665H39.8211ZM33.2242 19.1952L4.7814 4.28149L25.4024 28.4275L33.2242 19.1952ZM25.2747 30.6754L16.9257 34.7157L27.7704 42.9851L35.126 39.2389L25.2747 30.6754ZM34.2189 41.5484L28.7603 44.3284L30.2685 47.6183L34.2189 41.5484ZM29.2059 49.251L27.292 45.0762L15.6107 51.0254L23.0047 58.7793L29.2059 49.251ZM21.669 59.7641L6.14138 65.5346V55.8481L14.0796 51.8052L21.669 59.7641ZM14.4816 49.7529L26.1426 43.8141L15.2648 35.5195L6.59707 39.714L14.4816 49.7529ZM6.01566 38.1665L14.2982 34.1584L2.77097 6.95421L6.01566 38.1665ZM4.22406 6.16389L15.7819 33.4403L24.0864 29.4215L4.22406 6.16389ZM6.14138 41.7992L12.9864 50.5145L6.14138 54.0006V41.7992ZM7.41751 66.8166L22.3039 73.9911V61.2844L7.41751 66.8166ZM25.3412 75.4549L38.1042 81.6061L31.6856 73.4169L25.3412 75.4549ZM33.3566 72.8801L40.9264 82.5381L48.2745 72.8839L40.8316 70.4789L33.3566 72.8801ZM42.0617 69.1463L47.2024 60.3928L56.3882 73.7755L42.0617 69.1463ZM39.6021 69.1447L25.1853 73.7759L34.4593 60.3876L39.6021 69.1447ZM37.3844 62.1176L40.8324 67.9886L44.184 62.2815L40.9442 64.8701L37.3844 62.1176ZM34.0154 55.7914L31.0803 49.3891L35.4052 42.7437L34.0154 55.7914ZM33.5728 58.7762L30.0177 51.0217L23.9502 60.3447V72.6677L33.5728 58.7762ZM36.9267 59.6826H44.7994L40.9276 62.7762L36.9267 59.6826ZM35.4319 58.0363H46.2328L44.3374 40.2416H37.3274L35.4319 58.0363ZM56.2441 75.459L43.7002 81.6118L49.935 73.4204L56.2441 75.459ZM75.0513 4.28043L48.4224 19.1739L56.2336 28.3936L75.0513 4.28043Z" fill="black"/>
<path d="M120.186 64.7851H129.414V74.0133H110.894V14.7536H129.414V23.9496H120.186V64.7851Z" fill="black"/>
<path d="M185.015 50.84C185.015 53.1358 184.581 55.2965 183.713 57.3222C182.844 59.3286 181.658 61.0842 180.153 62.589C178.648 64.0745 176.883 65.2514 174.857 66.1195C172.851 66.9877 170.7 67.4218 168.404 67.4218C166.108 67.4218 163.948 66.9877 161.922 66.1195C159.916 65.2514 158.16 64.0745 156.655 62.589C155.17 61.0842 153.993 59.3286 153.125 57.3222C152.256 55.2965 151.822 53.1358 151.822 50.84V25.9239H160.099V50.84C160.099 51.9782 160.311 53.049 160.735 54.0522C161.179 55.0554 161.777 55.9332 162.53 56.6856C163.282 57.438 164.16 58.036 165.163 58.4798C166.186 58.9042 167.266 59.1164 168.404 59.1164C169.542 59.1164 170.613 58.9042 171.616 58.4798C172.639 58.036 173.526 57.438 174.279 56.6856C175.031 55.9332 175.619 55.0554 176.044 54.0522C176.488 53.049 176.71 51.9782 176.71 50.84V25.9239H185.015V50.84Z" fill="black"/>
<path d="M200.526 34.2293V50.84H208.831C209.97 50.84 211.04 50.6278 212.043 50.2033C213.047 49.7596 213.924 49.1615 214.677 48.4091C215.429 47.6567 216.018 46.7789 216.442 45.7757C216.886 44.7532 217.108 43.6729 217.108 42.5346C217.108 41.3964 216.886 40.3256 216.442 39.3224C216.018 38.2999 215.429 37.4125 214.677 36.6601C213.924 35.9077 213.047 35.3193 212.043 34.8948C211.04 34.4511 209.97 34.2293 208.831 34.2293H200.526ZM200.526 67.4218H192.221V25.9239H208.831C210.355 25.9239 211.822 26.1265 213.23 26.5316C214.638 26.9175 215.95 27.4769 217.166 28.21C218.4 28.9239 219.519 29.792 220.522 30.8145C221.545 31.8177 222.413 32.9367 223.127 34.1714C223.86 35.4061 224.42 36.7276 224.805 38.136C225.211 39.5443 225.413 41.0105 225.413 42.5346C225.413 43.9623 225.23 45.3513 224.863 46.7018C224.516 48.0522 224.005 49.3352 223.33 50.5506C222.674 51.766 221.863 52.885 220.899 53.9075C219.934 54.93 218.854 55.8174 217.658 56.5698L222.259 67.4218H213.433L209.815 59.0585L200.526 59.1164V67.4218Z" fill="black"/>
<path d="M264.075 54.9782C264.075 56.6952 263.747 58.3061 263.091 59.8109C262.435 61.3157 261.538 62.6373 260.4 63.7755C259.281 64.8945 257.969 65.7819 256.464 66.4379C254.959 67.0938 253.348 67.4218 251.631 67.4218H230.882V25.9239H251.631C253.348 25.9239 254.959 26.2519 256.464 26.9078C257.969 27.5637 259.281 28.4608 260.4 29.5991C261.538 30.718 262.435 32.0299 263.091 33.5347C263.747 35.0395 264.075 36.6504 264.075 38.3675C264.075 39.1392 263.969 39.9301 263.757 40.7404C263.544 41.5507 263.245 42.332 262.86 43.0844C262.474 43.8369 262.011 44.5217 261.471 45.1391C260.93 45.7564 260.332 46.2677 259.676 46.6728C260.352 47.0394 260.959 47.541 261.499 48.1776C262.04 48.795 262.503 49.4799 262.888 50.2323C263.274 50.9847 263.564 51.7757 263.757 52.6052C263.969 53.4155 264.075 54.2065 264.075 54.9782ZM239.188 59.1164H251.631C252.21 59.1164 252.75 59.0103 253.252 58.7981C253.754 58.5859 254.188 58.2965 254.554 57.9299C254.94 57.5441 255.239 57.1003 255.451 56.5987C255.664 56.0971 255.77 55.557 255.77 54.9782C255.77 54.3994 255.664 53.8592 255.451 53.3576C255.239 52.856 254.94 52.422 254.554 52.0554C254.188 51.6695 253.754 51.3705 253.252 51.1583C252.75 50.9461 252.21 50.84 251.631 50.84H239.188V59.1164ZM239.188 42.5346H251.631C252.21 42.5346 252.75 42.4285 253.252 42.2163C253.754 42.0041 254.188 41.7147 254.554 41.3481C254.94 40.9623 255.239 40.5186 255.451 40.017C255.664 39.4961 255.77 38.9462 255.77 38.3675C255.77 37.7887 255.664 37.2485 255.451 36.7469C255.239 36.2453 254.94 35.8112 254.554 35.4447C254.188 35.0588 253.754 34.7598 253.252 34.5476C252.75 34.3354 252.21 34.2293 251.631 34.2293H239.188V42.5346Z" fill="black"/>
<path d="M294.779 50.84V42.5346C294.779 41.3964 294.557 40.3256 294.113 39.3224C293.689 38.2999 293.1 37.4125 292.348 36.6601C291.596 35.9077 290.708 35.3193 289.686 34.8948C288.682 34.4511 287.612 34.2293 286.473 34.2293C285.335 34.2293 284.255 34.4511 283.232 34.8948C282.229 35.3193 281.351 35.9077 280.599 36.6601C279.846 37.4125 279.248 38.2999 278.805 39.3224C278.38 40.3256 278.168 41.3964 278.168 42.5346V50.84H294.779ZM303.084 67.4218H294.779V59.1164H278.168V67.4218H269.892V42.5346C269.892 40.2388 270.326 38.0877 271.194 36.0813C272.062 34.0556 273.239 32.2904 274.724 30.7856C276.229 29.2808 277.985 28.0943 279.991 27.2261C282.017 26.358 284.178 25.9239 286.473 25.9239C288.769 25.9239 290.92 26.358 292.927 27.2261C294.952 28.0943 296.718 29.2808 298.222 30.7856C299.727 32.2904 300.914 34.0556 301.782 36.0813C302.65 38.0877 303.084 40.2388 303.084 42.5346V67.4218Z" fill="black"/>
<path d="M343.482 67.4218H334.598L318.595 40.1038V67.4218H310.29V25.9239H319.174L335.177 53.2708V25.9239H343.482V67.4218Z" fill="black"/>
<path d="M400.954 63.1678C399.025 64.8269 396.864 66.1002 394.472 66.9877C392.08 67.8751 389.601 68.3189 387.035 68.3189C385.067 68.3189 383.167 68.0584 381.334 67.5375C379.52 67.0359 377.813 66.3221 376.212 65.3961C374.63 64.4507 373.183 63.3221 371.871 62.0103C370.559 60.6984 369.431 59.2514 368.485 57.6695C367.559 56.0682 366.836 54.3608 366.315 52.5474C365.813 50.7146 365.562 48.8143 365.562 46.8465C365.562 44.8786 365.813 42.9783 366.315 41.1456C366.836 39.3128 367.559 37.6054 368.485 36.0234C369.431 34.4222 370.559 32.9656 371.871 31.6537C373.183 30.3418 374.63 29.2229 376.212 28.2969C377.813 27.3515 379.52 26.6281 381.334 26.1265C383.167 25.6056 385.067 25.3451 387.035 25.3451C389.601 25.3451 392.08 25.7888 394.472 26.6763C396.864 27.5445 399.025 28.8177 400.954 30.4962L396.556 37.7308C395.34 36.4189 393.903 35.4157 392.244 34.7212C390.585 34.0074 388.848 33.6505 387.035 33.6505C385.202 33.6505 383.485 33.9977 381.884 34.6923C380.283 35.3868 378.884 36.3321 377.688 37.5282C376.492 38.7051 375.546 40.1038 374.852 41.7243C374.157 43.3256 373.81 45.033 373.81 46.8465C373.81 48.6599 374.157 50.3673 374.852 51.9686C375.546 53.5506 376.492 54.9396 377.688 56.1357C378.884 57.3319 380.283 58.2772 381.884 58.9717C383.485 59.6662 385.202 60.0135 387.035 60.0135C388.848 60.0135 390.585 59.6662 392.244 58.9717C393.903 58.2579 395.34 57.245 396.556 55.9332L400.954 63.1678Z" fill="black"/>
<path d="M430.211 50.84V42.5346C430.211 41.3964 429.989 40.3256 429.546 39.3224C429.121 38.2999 428.533 37.4125 427.78 36.6601C427.028 35.9077 426.14 35.3193 425.118 34.8948C424.115 34.4511 423.044 34.2293 421.906 34.2293C420.768 34.2293 419.687 34.4511 418.665 34.8948C417.661 35.3193 416.784 35.9077 416.031 36.6601C415.279 37.4125 414.681 38.2999 414.237 39.3224C413.813 40.3256 413.6 41.3964 413.6 42.5346V50.84H430.211ZM438.517 67.4218H430.211V59.1164H413.6V67.4218H405.324V42.5346C405.324 40.2388 405.758 38.0877 406.626 36.0813C407.494 34.0556 408.671 32.2904 410.157 30.7856C411.662 29.2808 413.417 28.0943 415.424 27.2261C417.449 26.358 419.61 25.9239 421.906 25.9239C424.202 25.9239 426.353 26.358 428.359 27.2261C430.385 28.0943 432.15 29.2808 433.655 30.7856C435.16 32.2904 436.346 34.0556 437.214 36.0813C438.082 38.0877 438.517 40.2388 438.517 42.5346V67.4218Z" fill="black"/>
<path d="M461.87 67.4218H453.593V34.2293H441.121V25.9239H474.313V34.2293H461.87V67.4218Z" fill="black"/>
<path d="M512.406 74.0133H493.918V64.7851H503.114V23.9496H493.918V14.7536H512.406V74.0133Z" fill="black"/>
</svg>
