<svg width="80" height="85" viewBox="0 0 80 85" fill="none" xmlns="http://www.w3.org/2000/svg">
<path fill-rule="evenodd" clip-rule="evenodd" d="M79.1223 0.117249L76.7555 39.4433V67.2317L40.9391 84.7999L4.4951 67.2356V39.4611L0.40625 0.128556L34.7192 18.1202H46.9337L79.1223 0.117249ZM46.7668 19.7665H41.8437L45.5982 37.8752L55.1064 29.6099L46.7668 19.7665ZM57.5305 29.4077L65.6392 33.4143L75.6258 6.2201L57.5305 29.4077ZM77.0521 7.11207L67.1237 34.1478L75.1852 38.1311L77.0521 7.11207ZM74.4929 39.6254L66.191 35.5232L55.3935 43.8165L66.8768 49.7434L74.4929 39.6254ZM68.3608 50.5094L75.1092 41.5441V53.9924L68.3608 50.5094ZM75.1092 55.845L67.2932 51.8109L59.8731 59.7646L75.1092 65.5272V55.845ZM73.8639 66.8163L59.2573 61.2918V73.981L73.8639 66.8163ZM57.611 72.6478V60.3431L51.5859 51.0136L48.089 58.7754L57.611 72.6478ZM47.6452 55.7527L46.2623 42.7704L50.5223 49.3667L47.6452 55.7527ZM52.3913 49.2261L58.5527 58.7666L65.7735 51.0266L54.2579 45.083L52.3913 49.2261ZM52.7929 44.3269L51.3276 47.5791L47.4446 41.5665L52.7929 44.3269ZM53.7771 42.9822L64.5463 34.7106L56.3863 30.6786L46.5334 39.2436L53.7771 42.9822ZM44.0662 38.5953H37.5985L40.8324 22.9979L44.0662 38.5953ZM39.8211 19.7665L36.0666 37.8752L26.5584 29.6099L34.8979 19.7665H39.8211ZM33.2242 19.1952L4.7814 4.28149L25.4024 28.4275L33.2242 19.1952ZM25.2747 30.6754L16.9257 34.7157L27.7704 42.9851L35.126 39.2389L25.2747 30.6754ZM34.2189 41.5484L28.7603 44.3284L30.2685 47.6183L34.2189 41.5484ZM29.2059 49.251L27.292 45.0762L15.6107 51.0254L23.0047 58.7793L29.2059 49.251ZM21.669 59.7641L6.14138 65.5346V55.8481L14.0796 51.8052L21.669 59.7641ZM14.4816 49.7529L26.1426 43.8141L15.2648 35.5195L6.59707 39.714L14.4816 49.7529ZM6.01566 38.1665L14.2982 34.1584L2.77097 6.95421L6.01566 38.1665ZM4.22406 6.16389L15.7819 33.4403L24.0864 29.4215L4.22406 6.16389ZM6.14138 41.7992L12.9864 50.5145L6.14138 54.0006V41.7992ZM7.41751 66.8166L22.3039 73.9911V61.2844L7.41751 66.8166ZM25.3412 75.4549L38.1042 81.6061L31.6856 73.4169L25.3412 75.4549ZM33.3566 72.8801L40.9264 82.5381L48.2745 72.8839L40.8316 70.4789L33.3566 72.8801ZM42.0617 69.1463L47.2024 60.3928L56.3882 73.7755L42.0617 69.1463ZM39.6021 69.1447L25.1853 73.7759L34.4593 60.3876L39.6021 69.1447ZM37.3844 62.1176L40.8324 67.9886L44.184 62.2815L40.9442 64.8701L37.3844 62.1176ZM34.0154 55.7914L31.0803 49.3891L35.4052 42.7437L34.0154 55.7914ZM33.5728 58.7762L30.0177 51.0217L23.9502 60.3447V72.6677L33.5728 58.7762ZM36.9267 59.6826H44.7994L40.9276 62.7762L36.9267 59.6826ZM35.4319 58.0363H46.2328L44.3374 40.2416H37.3274L35.4319 58.0363ZM56.2441 75.459L43.7002 81.6118L49.935 73.4204L56.2441 75.459ZM75.0513 4.28043L48.4224 19.1739L56.2336 28.3936L75.0513 4.28043Z" fill="black"/>
</svg>
