<svg width="18" height="18" viewBox="0 0 18 18" fill="none" xmlns="http://www.w3.org/2000/svg">
<path fill-rule="evenodd" clip-rule="evenodd" d="M17 1H1V17H17V1ZM0 0V18H18V0H0Z" fill="#5F5A56"/>
<path d="M8.67188 9.92969C7.38542 9.5599 6.44792 9.10677 5.85938 8.57031C5.27604 8.02865 4.98438 7.36198 4.98438 6.57031C4.98438 5.67448 5.34115 4.9349 6.05469 4.35156C6.77344 3.76302 7.70573 3.46875 8.85156 3.46875C9.63281 3.46875 10.3281 3.61979 10.9375 3.92188C11.5521 4.22396 12.026 4.64062 12.3594 5.17188C12.6979 5.70312 12.8672 6.28385 12.8672 6.91406H11.3594C11.3594 6.22656 11.1406 5.6875 10.7031 5.29688C10.2656 4.90104 9.64844 4.70312 8.85156 4.70312C8.11198 4.70312 7.53385 4.86719 7.11719 5.19531C6.70573 5.51823 6.5 5.96875 6.5 6.54688C6.5 7.01042 6.69531 7.40365 7.08594 7.72656C7.48177 8.04427 8.15104 8.33594 9.09375 8.60156C10.0417 8.86719 10.7812 9.16146 11.3125 9.48438C11.849 9.80208 12.2448 10.1745 12.5 10.6016C12.7604 11.0286 12.8906 11.5312 12.8906 12.1094C12.8906 13.0312 12.5312 13.7708 11.8125 14.3281C11.0938 14.8802 10.1328 15.1562 8.92969 15.1562C8.14844 15.1562 7.41927 15.0078 6.74219 14.7109C6.0651 14.4089 5.54167 13.9974 5.17188 13.4766C4.80729 12.9557 4.625 12.3646 4.625 11.7031H6.13281C6.13281 12.3906 6.38542 12.9349 6.89062 13.3359C7.40104 13.7318 8.08073 13.9297 8.92969 13.9297C9.72135 13.9297 10.3281 13.7682 10.75 13.4453C11.1719 13.1224 11.3828 12.6823 11.3828 12.125C11.3828 11.5677 11.1875 11.138 10.7969 10.8359C10.4062 10.5286 9.69792 10.2266 8.67188 9.92969Z" fill="#5F5A56"/>
</svg>
